<?xml version="1.0" standalone="no"?>
<!DOCTYPE svg PUBLIC "-//W3C//DTD SVG 20010904//EN"
 "http://www.w3.org/TR/2001/REC-SVG-20010904/DTD/svg10.dtd">
<svg version="1.0" xmlns="http://www.w3.org/2000/svg"
 width="512.000000pt" height="512.000000pt" viewBox="0 0 512.000000 512.000000"
 preserveAspectRatio="xMidYMid meet">

<g transform="translate(0.000000,512.000000) scale(0.100000,-0.100000)"
fill="#000000" stroke="none">
<path d="M2627 5110 c-816 -74 -1379 -455 -1586 -1075 -55 -165 -90 -390 -92
-582 0 -54 -4 -120 -9 -148 -11 -70 3 -98 105 -204 201 -208 437 -315 725
-328 116 -5 231 7 315 32 17 5 22 -1 32 -46 16 -65 50 -111 111 -146 l47 -28
510 0 c503 0 511 0 550 22 84 45 125 114 125 210 0 71 -24 125 -76 175 -76 72
-77 73 -476 76 l-357 3 64 76 c170 203 251 441 243 711 l-3 124 50 -7 c69 -9
161 -33 218 -57 l47 -20 0 -52 c0 -76 26 -221 55 -305 70 -206 175 -352 370
-514 29 -24 29 -25 17 -76 -47 -203 -217 -440 -405 -564 -186 -123 -424 -181
-643 -158 -83 9 -112 18 -181 51 -133 65 -262 178 -343 300 -32 48 -49 60 -86
60 -37 0 -74 -38 -74 -75 0 -25 61 -115 127 -190 124 -139 329 -262 518 -312
88 -23 120 -26 260 -26 141 -1 171 3 256 25 128 35 224 77 326 143 214 140
377 371 442 626 l17 66 69 -24 c147 -50 319 -65 482 -42 83 11 243 59 305 90
l37 19 -6 -38 c-9 -68 -51 -237 -79 -317 -68 -199 -140 -339 -357 -687 l-142
-228 -70 0 c-222 0 -426 84 -592 243 -66 63 -90 80 -113 80 -43 0 -70 -28 -70
-74 0 -33 8 -45 71 -108 162 -162 392 -272 602 -288 42 -3 77 -9 77 -13 0 -4
-25 -59 -54 -121 -60 -125 -97 -227 -128 -358 -20 -79 -22 -122 -25 -535 l-4
-448 22 -24 c39 -42 99 -28 118 27 7 21 11 162 11 419 0 417 4 466 56 639 54
177 136 337 355 683 204 324 275 454 352 648 160 401 185 864 71 1300 -177
675 -651 1144 -1324 1309 -69 17 -172 37 -230 46 -125 19 -493 27 -633 15z
m1246 -366 c78 -40 192 -118 285 -197 349 -295 572 -806 572 -1312 l0 -111
-62 -36 c-242 -142 -567 -152 -827 -28 -322 154 -514 459 -514 815 0 260 88
464 285 658 88 86 90 89 86 130 l-3 42 60 32 c33 18 61 33 63 33 1 0 26 -12
55 -26z m-1855 -45 c195 -44 384 -168 508 -332 59 -78 128 -222 155 -323 28
-104 31 -316 6 -418 -44 -177 -117 -306 -247 -436 -130 -130 -259 -203 -436
-247 -102 -25 -314 -22 -417 5 -167 45 -324 138 -434 255 l-61 66 5 128 c2 70
9 175 14 233 45 470 259 829 632 1060 59 37 65 39 127 33 36 -2 102 -13 148
-24z m392 -1874 l0 -85 -54 0 c-47 0 -57 4 -75 26 -50 63 1 143 92 144 l37 0
0 -85z m300 0 l0 -85 -75 0 -75 0 0 85 0 85 75 0 75 0 0 -85z m300 0 l0 -85
-75 0 -75 0 0 85 0 85 75 0 75 0 0 -85z m265 63 c38 -33 45 -91 15 -123 -19
-21 -33 -25 -77 -25 l-53 0 0 85 0 85 44 0 c32 0 52 -6 71 -22z"/>
<path d="M3555 3885 c-32 -31 -32 -66 0 -103 80 -95 250 -99 343 -10 42 41 44
87 6 117 -35 28 -63 26 -104 -4 -21 -16 -47 -25 -70 -25 -23 0 -49 9 -70 25
-43 32 -74 32 -105 0z"/>
<path d="M4096 3889 c-38 -30 -36 -76 7 -117 92 -89 262 -85 342 10 32 37 32
72 0 103 -31 32 -61 32 -107 0 -21 -14 -51 -25 -71 -25 -20 0 -47 10 -67 25
-41 30 -69 32 -104 4z"/>
<path d="M4080 3564 c-138 -22 -222 -56 -316 -127 -69 -53 -90 -89 -75 -130
23 -59 79 -61 146 -6 96 80 182 110 305 110 117 0 208 -35 314 -120 21 -17 50
-31 63 -31 32 0 73 42 73 76 0 58 -158 171 -290 207 -58 17 -178 28 -220 21z"/>
<path d="M1601 4144 c-19 -24 -21 -40 -21 -176 0 -145 1 -150 25 -173 30 -30
64 -32 99 -4 l26 20 0 158 c0 152 -1 158 -23 179 -33 31 -80 29 -106 -4z"/>
<path d="M1901 4144 c-19 -24 -21 -40 -21 -176 0 -145 1 -150 25 -173 30 -30
64 -32 99 -4 l26 20 0 158 c0 152 -1 158 -23 179 -33 31 -80 29 -106 -4z"/>
<path d="M1328 3754 c-15 -8 -31 -26 -34 -40 -15 -61 54 -202 142 -291 162
-162 412 -198 618 -91 84 44 183 146 225 231 54 112 52 176 -6 198 -46 17 -79
-5 -103 -70 -26 -70 -81 -152 -126 -186 -19 -14 -60 -38 -92 -53 -48 -23 -70
-27 -147 -27 -77 0 -99 4 -147 27 -103 48 -181 137 -217 251 -8 24 -23 43 -41
52 -35 18 -38 18 -72 -1z"/>
<path d="M2993 3610 c-37 -15 -43 -42 -43 -200 0 -147 1 -152 25 -175 21 -22
33 -25 93 -25 84 0 122 23 122 71 0 44 -15 66 -55 79 l-35 12 0 103 c0 100 -1
104 -26 124 -29 23 -46 25 -81 11z"/>
<path d="M795 3074 c-11 -8 -109 -70 -218 -137 -108 -67 -219 -141 -246 -164
-62 -54 -94 -118 -93 -187 0 -93 46 -169 190 -318 l95 -97 -43 -156 c-33 -121
-41 -167 -38 -209 6 -73 47 -140 108 -178 47 -29 49 -32 60 -96 21 -125 82
-374 117 -481 99 -300 216 -444 395 -487 156 -36 467 -29 806 20 l152 21 0
-278 0 -278 25 -24 c30 -30 64 -32 99 -4 l26 20 0 343 0 343 -25 23 c-25 24
-27 24 -108 12 -246 -37 -355 -52 -476 -63 -168 -15 -406 -7 -480 16 -162 50
-270 279 -376 802 -8 41 -5 41 106 8 46 -13 92 -25 102 -25 28 0 67 45 67 78
0 50 -32 67 -220 117 -149 40 -179 51 -202 76 -16 16 -28 40 -28 54 0 14 20
98 45 188 25 90 45 176 45 191 0 22 -26 53 -123 149 -141 139 -183 206 -165
258 13 37 67 79 233 179 72 43 166 103 210 132 74 49 80 56 83 90 6 66 -69
104 -123 62z"/>
<path d="M3988 2660 c-89 -27 -150 -100 -156 -190 -4 -49 -1 -61 17 -79 45
-45 117 -17 127 50 7 42 42 79 74 79 10 0 29 -9 44 -21 50 -39 24 -129 -38
-129 -13 0 -35 -9 -50 -21 -24 -19 -26 -26 -26 -104 0 -78 2 -85 26 -104 30
-23 61 -26 85 -8 21 16 39 51 39 76 0 12 11 26 28 35 85 45 138 161 113 252
-33 123 -165 200 -283 164z"/>
<path d="M3999 1991 c-34 -35 -37 -68 -8 -105 42 -53 139 -21 139 46 0 40 -10
57 -41 73 -40 21 -57 19 -90 -14z"/>
</g>
</svg>
